<?xml version="1.0" ?><!DOCTYPE svg  PUBLIC '-//W3C//DTD SVG 1.1//EN'  'http://www.w3.org/Graphics/SVG/1.1/DTD/svg11.dtd'><svg enable-background="new 0 0 32 32" version="1.1" viewBox="0 0 32 32" xml:space="preserve" xmlns="http://www.w3.org/2000/svg" xmlns:xlink="http://www.w3.org/1999/xlink"><g><g id="Guide"/><g id="Basket_Add"/><g id="Schedule"><path d="M28.2,26.1H3.8c-0.6,0-1-0.4-1-1V10c0-0.6,0.4-1,1-1h24.3     c0.6,0,1,0.4,1,1v15.1C29.2,25.6,28.7,26.1,28.2,26.1z" fill="none" stroke="#000000" stroke-miterlimit="10"/><line fill="none" stroke="#000000" stroke-miterlimit="10" x1="2.8" x2="29.2" y1="14" y2="14"/><line fill="none" stroke="#000000" stroke-miterlimit="10" x1="2.8" x2="29.2" y1="18.3" y2="18.3"/><line fill="none" stroke="#000000" stroke-miterlimit="10" x1="2.8" x2="29.2" y1="22.2" y2="22.2"/><path d="M6.6,5.9" fill="none" stroke="#000000" stroke-miterlimit="10"/><path d="M8,10.9H7.8c-0.2,0-0.4-0.2-0.4-0.4V7.4C7.4,7.2,7.6,7,7.8,7H8c0.2,0,0.4,0.2,0.4,0.4v3.2C8.4,10.8,8.2,10.9,8,10.9z"/><path d="M24.2,10.9H24c-0.2,0-0.4-0.2-0.4-0.4V7.4C23.6,7.2,23.8,7,24,7h0.2c0.2,0,0.4,0.2,0.4,0.4v3.2     C24.6,10.8,24.4,10.9,24.2,10.9z"/><g><line fill="none" stroke="#000000" stroke-miterlimit="10" x1="9.2" x2="9.2" y1="14" y2="26.1"/><line fill="none" stroke="#000000" stroke-miterlimit="10" x1="16" x2="16" y1="14" y2="26.1"/><line fill="none" stroke="#000000" stroke-miterlimit="10" x1="22.8" x2="22.8" y1="13.9" y2="26"/></g></g><g id="Clipboard"/><g id="Align_Left"/><g id="Align_Right"/><g id="Align_Center_1_"/><g id="Justify"/><g id="Document"/><g id="New_Document"/><g id="Cart"/></g></svg>