<?xml version="1.0" ?><!DOCTYPE svg  PUBLIC '-//W3C//DTD SVG 1.1//EN'  'http://www.w3.org/Graphics/SVG/1.1/DTD/svg11.dtd'><svg height="128px" id="Layer_1" style="enable-background:new 0 0 128 128;" version="1.1" viewBox="0 0 128 128" width="128px" xml:space="preserve" xmlns="http://www.w3.org/2000/svg" xmlns:xlink="http://www.w3.org/1999/xlink"><g><path d="M42.857,56.321c-0.805,0-1.498-0.26-2.082-0.778S39.9,54.298,39.9,53.364   c0-0.791,0.277-1.472,0.836-2.043c0.557-0.57,1.244-0.856,2.063-0.856c0.816,0,1.514,0.282,2.09,0.847   c0.578,0.564,0.867,1.248,0.867,2.052c0,0.921-0.289,1.644-0.867,2.169C44.313,56.059,43.635,56.321,42.857,56.321z" style="fill:#313335;"/><path d="M55.328,56.321c-0.805,0-1.498-0.26-2.082-0.778s-0.875-1.245-0.875-2.179   c0-0.791,0.277-1.472,0.836-2.043c0.557-0.57,1.244-0.856,2.063-0.856c0.816,0,1.514,0.282,2.09,0.847   c0.578,0.564,0.867,1.248,0.867,2.052c0,0.921-0.289,1.644-0.867,2.169C56.783,56.059,56.105,56.321,55.328,56.321z" style="fill:#313335;"/><path d="M67.799,56.321c-0.805,0-1.498-0.26-2.082-0.778s-0.875-1.245-0.875-2.179   c0-0.791,0.277-1.472,0.836-2.043c0.557-0.57,1.244-0.856,2.063-0.856c0.816,0,1.514,0.282,2.09,0.847   c0.578,0.564,0.867,1.248,0.867,2.052c0,0.921-0.289,1.644-0.867,2.169C69.254,56.059,68.576,56.321,67.799,56.321z" style="fill:#313335;"/></g><g><path d="M33.11,86.599c-0.27,0-0.54-0.073-0.778-0.218c-6.711-4.073-8.808-11.515-5.813-20.496   c-2.772-4.043-4.234-8.597-4.234-13.219c0-15.215,15.562-27.594,34.689-27.594s34.689,12.379,34.689,27.594   S76.102,80.261,56.974,80.261c-6.115,0-12.104-1.276-17.363-3.696c-3.28,1.241-4.794,2.947-5.001,8.589   c-0.02,0.531-0.319,1.013-0.787,1.265C33.6,86.539,33.354,86.599,33.11,86.599z M56.974,28.072   c-17.474,0-31.689,11.033-31.689,24.594c0,4.23,1.423,8.413,4.115,12.097c0.295,0.403,0.369,0.926,0.2,1.395   c-2.492,6.896-1.684,12.522,2.244,16.131c0.682-4.78,2.799-7.194,7.354-8.764c0.373-0.128,0.781-0.105,1.14,0.066   c4.992,2.4,10.745,3.669,16.637,3.669c17.474,0,31.689-11.033,31.689-24.594S74.447,28.072,56.974,28.072z" style="fill:#313335;"/></g><g><path d="M55.973,73.004c-0.828,0-1.5-0.671-1.5-1.5s0.672-1.5,1.5-1.5c14.077,0,25.529-8.86,25.529-19.751   c0-0.829,0.672-1.5,1.5-1.5s1.5,0.671,1.5,1.5C84.502,62.798,71.704,73.004,55.973,73.004z" style="fill:#313335;"/></g><g><path d="M95.292,108.271c-0.238,0-0.478-0.057-0.695-0.171c-0.479-0.25-0.785-0.738-0.804-1.277   c-0.145-4.18-1.104-5.469-3.297-6.392c-3.912,1.874-8.347,2.861-12.874,2.861c-12.928,0-23.762-7.807-25.76-18.563   c-0.09-0.484,0.063-0.981,0.41-1.331s0.843-0.505,1.328-0.419c2.354,0.42,4.744,0.633,7.107,0.633   c14.672,0,27.335-7.729,30.795-18.796c0.141-0.451,0.485-0.809,0.931-0.966c0.445-0.157,0.939-0.096,1.332,0.165   c6.313,4.201,9.933,10.498,9.933,17.278c0,3.645-1.073,7.233-3.111,10.424c2.205,7.131,0.591,13.051-4.483,16.316   C95.857,108.191,95.575,108.271,95.292,108.271z M90.425,97.293c0.174,0,0.349,0.03,0.515,0.091   c3.238,1.184,4.905,3.021,5.548,6.38c2.337-2.761,2.715-6.847,1.029-11.791c-0.153-0.449-0.084-0.945,0.186-1.336   c1.96-2.841,2.996-6.073,2.996-9.346c0-5.185-2.539-10.068-7.032-13.643c-4.632,11.26-17.841,18.962-32.958,18.962   c-1.779,0-3.572-0.112-5.355-0.335c2.697,8.123,11.849,14.016,22.27,14.016c4.293,0,8.484-0.98,12.121-2.835   C89.957,97.349,90.19,97.293,90.425,97.293z" style="fill:#EE3E36;"/></g><rect height="128" id="_x3C_Slice_x3E__5_" style="fill:none;" width="128" x="-0.5" y="-0.5"/></svg>